<?xml version="1.0" encoding="UTF-8"?>
<svg xmlns="http://www.w3.org/2000/svg" xmlns:xlink="http://www.w3.org/1999/xlink" width="504pt" height="360pt" viewBox="0 0 504 360">
<defs>
<g>
<g id="glyph-0-0">
<path d="M 0.234375 0 L 0.234375 -6.875 L 2.328125 -6.875 L 2.328125 0 Z M 0.484375 -0.28125 L 2.078125 -0.28125 L 2.078125 -6.640625 L 0.484375 -6.640625 Z M 0.484375 -0.28125 "/>
</g>
<g id="glyph-0-1">
<path d="M -0.015625 0 L 2.46875 -7.875 L 3.390625 -7.875 L 6.03125 0 L 5.046875 0 L 4.296875 -2.390625 L 1.609375 -2.390625 L 0.890625 0 Z M 1.859375 -3.234375 L 4.046875 -3.234375 L 3.375 -5.421875 C 3.164062 -6.085938 3.007812 -6.628906 2.90625 -7.046875 C 2.820312 -6.546875 2.707031 -6.046875 2.5625 -5.546875 Z M 1.859375 -3.234375 "/>
</g>
<g id="glyph-0-2">
<path d="M 0.28125 -1.703125 L 1.0625 -1.859375 C 1.113281 -1.453125 1.238281 -1.148438 1.4375 -0.953125 C 1.644531 -0.765625 1.921875 -0.671875 2.265625 -0.671875 C 2.609375 -0.671875 2.875 -0.753906 3.0625 -0.921875 C 3.257812 -1.085938 3.359375 -1.300781 3.359375 -1.5625 C 3.359375 -1.789062 3.273438 -1.96875 3.109375 -2.09375 C 2.992188 -2.175781 2.722656 -2.285156 2.296875 -2.421875 C 1.679688 -2.609375 1.269531 -2.765625 1.0625 -2.890625 C 0.851562 -3.023438 0.691406 -3.203125 0.578125 -3.421875 C 0.460938 -3.648438 0.40625 -3.90625 0.40625 -4.1875 C 0.40625 -4.675781 0.5625 -5.070312 0.875 -5.375 C 1.1875 -5.675781 1.617188 -5.828125 2.171875 -5.828125 C 2.523438 -5.828125 2.832031 -5.765625 3.09375 -5.640625 C 3.351562 -5.515625 3.550781 -5.347656 3.6875 -5.140625 C 3.832031 -4.929688 3.929688 -4.628906 3.984375 -4.234375 L 3.21875 -4.109375 C 3.144531 -4.722656 2.804688 -5.03125 2.203125 -5.03125 C 1.859375 -5.03125 1.597656 -4.960938 1.421875 -4.828125 C 1.253906 -4.691406 1.171875 -4.515625 1.171875 -4.296875 C 1.171875 -4.085938 1.253906 -3.921875 1.421875 -3.796875 C 1.515625 -3.734375 1.800781 -3.617188 2.28125 -3.453125 C 2.9375 -3.242188 3.359375 -3.078125 3.546875 -2.953125 C 3.742188 -2.828125 3.894531 -2.65625 4 -2.4375 C 4.101562 -2.226562 4.15625 -1.976562 4.15625 -1.6875 C 4.15625 -1.144531 3.984375 -0.703125 3.640625 -0.359375 C 3.296875 -0.0234375 2.828125 0.140625 2.234375 0.140625 C 1.109375 0.140625 0.457031 -0.472656 0.28125 -1.703125 Z M 0.28125 -1.703125 "/>
</g>
<g id="glyph-0-3">
<path d="M 3.78125 -1.84375 L 4.59375 -1.71875 C 4.457031 -1.101562 4.210938 -0.640625 3.859375 -0.328125 C 3.503906 -0.0234375 3.0625 0.125 2.53125 0.125 C 1.875 0.125 1.335938 -0.125 0.921875 -0.625 C 0.515625 -1.125 0.3125 -1.847656 0.3125 -2.796875 C 0.3125 -3.785156 0.515625 -4.535156 0.921875 -5.046875 C 1.335938 -5.566406 1.863281 -5.828125 2.5 -5.828125 C 3.101562 -5.828125 3.609375 -5.570312 4.015625 -5.0625 C 4.421875 -4.5625 4.625 -3.828125 4.625 -2.859375 L 4.625 -2.609375 L 1.125 -2.609375 C 1.15625 -1.960938 1.300781 -1.476562 1.5625 -1.15625 C 1.832031 -0.832031 2.160156 -0.671875 2.546875 -0.671875 C 3.140625 -0.671875 3.550781 -1.0625 3.78125 -1.84375 Z M 1.171875 -3.40625 L 3.78125 -3.40625 C 3.75 -3.894531 3.644531 -4.257812 3.46875 -4.5 C 3.21875 -4.851562 2.894531 -5.03125 2.5 -5.03125 C 2.144531 -5.03125 1.84375 -4.882812 1.59375 -4.59375 C 1.34375 -4.300781 1.203125 -3.90625 1.171875 -3.40625 Z M 1.171875 -3.40625 "/>
</g>
<g id="glyph-0-4">
<path d="M 0.59375 0 L 0.59375 -5.703125 L 1.296875 -5.703125 L 1.296875 -4.90625 C 1.453125 -5.195312 1.65625 -5.421875 1.90625 -5.578125 C 2.15625 -5.742188 2.425781 -5.828125 2.71875 -5.828125 C 3.050781 -5.828125 3.328125 -5.742188 3.546875 -5.578125 C 3.773438 -5.410156 3.941406 -5.160156 4.046875 -4.828125 C 4.222656 -5.160156 4.429688 -5.410156 4.671875 -5.578125 C 4.921875 -5.742188 5.191406 -5.828125 5.484375 -5.828125 C 5.929688 -5.828125 6.28125 -5.675781 6.53125 -5.375 C 6.789062 -5.070312 6.921875 -4.585938 6.921875 -3.921875 L 6.921875 0 L 6.140625 0 L 6.140625 -3.59375 C 6.140625 -4 6.109375 -4.285156 6.046875 -4.453125 C 5.992188 -4.628906 5.898438 -4.765625 5.765625 -4.859375 C 5.628906 -4.953125 5.476562 -5 5.3125 -5 C 4.976562 -5 4.703125 -4.863281 4.484375 -4.59375 C 4.265625 -4.320312 4.15625 -3.894531 4.15625 -3.3125 L 4.15625 0 L 3.375 0 L 3.375 -3.703125 C 3.375 -4.179688 3.300781 -4.515625 3.15625 -4.703125 C 3.007812 -4.898438 2.804688 -5 2.546875 -5 C 2.191406 -5 1.90625 -4.851562 1.6875 -4.5625 C 1.476562 -4.269531 1.375 -3.734375 1.375 -2.953125 L 1.375 0 Z M 0.59375 0 "/>
</g>
<g id="glyph-0-5">
<path d="M 0.578125 0 L 0.578125 -5.703125 L 1.296875 -5.703125 L 1.296875 -4.890625 C 1.460938 -5.203125 1.671875 -5.4375 1.921875 -5.59375 C 2.171875 -5.75 2.457031 -5.828125 2.78125 -5.828125 C 3.03125 -5.828125 3.257812 -5.773438 3.46875 -5.671875 C 3.6875 -5.578125 3.859375 -5.453125 3.984375 -5.296875 C 4.117188 -5.140625 4.21875 -4.929688 4.28125 -4.671875 C 4.351562 -4.421875 4.390625 -4.03125 4.390625 -3.5 L 4.390625 0 L 3.59375 0 L 3.59375 -3.46875 C 3.59375 -3.882812 3.554688 -4.1875 3.484375 -4.375 C 3.410156 -4.570312 3.296875 -4.722656 3.140625 -4.828125 C 2.992188 -4.941406 2.816406 -5 2.609375 -5 C 2.234375 -5 1.929688 -4.851562 1.703125 -4.5625 C 1.484375 -4.28125 1.375 -3.796875 1.375 -3.109375 L 1.375 0 Z M 0.578125 0 "/>
</g>
<g id="glyph-0-6">
<path d="M 2.34375 -0.859375 L 2.453125 -0.015625 C 2.234375 0.046875 2.035156 0.078125 1.859375 0.078125 C 1.585938 0.078125 1.367188 0.0234375 1.203125 -0.078125 C 1.035156 -0.191406 0.914062 -0.34375 0.84375 -0.53125 C 0.78125 -0.726562 0.75 -1.109375 0.75 -1.671875 L 0.75 -4.953125 L 0.171875 -4.953125 L 0.171875 -5.703125 L 0.75 -5.703125 L 0.75 -7.109375 L 1.546875 -7.703125 L 1.546875 -5.703125 L 2.34375 -5.703125 L 2.34375 -4.953125 L 1.546875 -4.953125 L 1.546875 -1.609375 C 1.546875 -1.304688 1.566406 -1.109375 1.609375 -1.015625 C 1.679688 -0.890625 1.8125 -0.828125 2 -0.828125 C 2.082031 -0.828125 2.195312 -0.835938 2.34375 -0.859375 Z M 2.34375 -0.859375 "/>
</g>
<g id="glyph-0-7">
<path d="M 0.4375 0.46875 L 1.203125 0.609375 C 1.234375 0.910156 1.335938 1.132812 1.515625 1.28125 C 1.703125 1.4375 1.953125 1.515625 2.265625 1.515625 C 2.617188 1.515625 2.894531 1.429688 3.09375 1.265625 C 3.300781 1.097656 3.445312 0.847656 3.53125 0.515625 C 3.570312 0.316406 3.59375 -0.101562 3.59375 -0.75 C 3.414062 -0.5 3.21875 -0.3125 3 -0.1875 C 2.789062 -0.0625 2.554688 0 2.296875 0 C 1.742188 0 1.28125 -0.234375 0.90625 -0.703125 C 0.488281 -1.253906 0.28125 -1.984375 0.28125 -2.890625 C 0.28125 -3.503906 0.367188 -4.039062 0.546875 -4.5 C 0.734375 -4.957031 0.976562 -5.289062 1.28125 -5.5 C 1.582031 -5.71875 1.921875 -5.828125 2.296875 -5.828125 C 2.578125 -5.828125 2.832031 -5.757812 3.0625 -5.625 C 3.289062 -5.488281 3.488281 -5.285156 3.65625 -5.015625 L 3.65625 -5.703125 L 4.390625 -5.703125 L 4.390625 -0.78125 C 4.390625 0.101562 4.316406 0.734375 4.171875 1.109375 C 4.035156 1.484375 3.800781 1.773438 3.46875 1.984375 C 3.144531 2.203125 2.753906 2.3125 2.296875 2.3125 C 1.691406 2.3125 1.222656 2.148438 0.890625 1.828125 C 0.566406 1.503906 0.414062 1.050781 0.4375 0.46875 Z M 1.09375 -2.953125 C 1.09375 -2.203125 1.210938 -1.65625 1.453125 -1.3125 C 1.703125 -0.96875 2.007812 -0.796875 2.375 -0.796875 C 2.726562 -0.796875 3.03125 -0.960938 3.28125 -1.296875 C 3.53125 -1.640625 3.65625 -2.175781 3.65625 -2.90625 C 3.65625 -3.625 3.523438 -4.15625 3.265625 -4.5 C 3.015625 -4.851562 2.703125 -5.03125 2.328125 -5.03125 C 2.003906 -5.03125 1.71875 -4.851562 1.46875 -4.5 C 1.21875 -4.15625 1.09375 -3.640625 1.09375 -2.953125 Z M 1.09375 -2.953125 "/>
</g>
<g id="glyph-0-8">
<path d="M 0.578125 0 L 0.578125 -5.703125 L 1.296875 -5.703125 L 1.296875 -4.84375 C 1.472656 -5.238281 1.640625 -5.5 1.796875 -5.625 C 1.953125 -5.757812 2.125 -5.828125 2.3125 -5.828125 C 2.570312 -5.828125 2.84375 -5.722656 3.125 -5.515625 L 2.859375 -4.625 C 2.660156 -4.757812 2.46875 -4.828125 2.28125 -4.828125 C 2.113281 -4.828125 1.957031 -4.769531 1.8125 -4.65625 C 1.675781 -4.539062 1.578125 -4.375 1.515625 -4.15625 C 1.421875 -3.789062 1.375 -3.398438 1.375 -2.984375 L 1.375 0 Z M 0.578125 0 "/>
</g>
<g id="glyph-0-9">
<path d="M 3.625 -0.703125 C 3.363281 -0.429688 3.085938 -0.222656 2.796875 -0.078125 C 2.515625 0.0546875 2.21875 0.125 1.90625 0.125 C 1.425781 0.125 1.039062 -0.0195312 0.75 -0.3125 C 0.457031 -0.601562 0.3125 -1 0.3125 -1.5 C 0.3125 -1.832031 0.378906 -2.125 0.515625 -2.375 C 0.648438 -2.625 0.832031 -2.820312 1.0625 -2.96875 C 1.300781 -3.113281 1.664062 -3.21875 2.15625 -3.28125 C 2.789062 -3.375 3.257812 -3.488281 3.5625 -3.625 L 3.578125 -3.875 C 3.578125 -4.257812 3.503906 -4.53125 3.359375 -4.6875 C 3.160156 -4.914062 2.859375 -5.03125 2.453125 -5.03125 C 2.085938 -5.03125 1.8125 -4.953125 1.625 -4.796875 C 1.445312 -4.648438 1.3125 -4.367188 1.21875 -3.953125 L 0.453125 -4.078125 C 0.554688 -4.691406 0.773438 -5.132812 1.109375 -5.40625 C 1.453125 -5.6875 1.941406 -5.828125 2.578125 -5.828125 C 3.066406 -5.828125 3.445312 -5.734375 3.71875 -5.546875 C 4 -5.367188 4.175781 -5.144531 4.25 -4.875 C 4.320312 -4.601562 4.359375 -4.203125 4.359375 -3.671875 L 4.359375 -2.390625 C 4.359375 -1.484375 4.375 -0.910156 4.40625 -0.671875 C 4.445312 -0.441406 4.519531 -0.21875 4.625 0 L 3.796875 0 C 3.710938 -0.195312 3.65625 -0.429688 3.625 -0.703125 Z M 3.5625 -2.859375 C 3.269531 -2.710938 2.835938 -2.59375 2.265625 -2.5 C 1.929688 -2.4375 1.695312 -2.367188 1.5625 -2.296875 C 1.4375 -2.222656 1.335938 -2.117188 1.265625 -1.984375 C 1.191406 -1.847656 1.15625 -1.695312 1.15625 -1.53125 C 1.15625 -1.257812 1.238281 -1.039062 1.40625 -0.875 C 1.570312 -0.707031 1.804688 -0.625 2.109375 -0.625 C 2.390625 -0.625 2.644531 -0.695312 2.875 -0.84375 C 3.101562 -0.988281 3.273438 -1.1875 3.390625 -1.4375 C 3.503906 -1.6875 3.5625 -2.046875 3.5625 -2.515625 Z M 3.5625 -2.859375 "/>
</g>
<g id="glyph-0-10">
<path d="M 3.609375 0 L 3.609375 -0.71875 C 3.472656 -0.445312 3.289062 -0.238281 3.0625 -0.09375 C 2.832031 0.0507812 2.585938 0.125 2.328125 0.125 C 1.773438 0.125 1.296875 -0.132812 0.890625 -0.65625 C 0.492188 -1.175781 0.296875 -1.910156 0.296875 -2.859375 C 0.296875 -3.503906 0.382812 -4.050781 0.5625 -4.5 C 0.738281 -4.945312 0.976562 -5.28125 1.28125 -5.5 C 1.582031 -5.71875 1.914062 -5.828125 2.28125 -5.828125 C 2.539062 -5.828125 2.78125 -5.757812 3 -5.625 C 3.226562 -5.488281 3.414062 -5.296875 3.5625 -5.046875 L 3.5625 -7.875 L 4.359375 -7.875 L 4.359375 0 Z M 1.109375 -2.84375 C 1.109375 -2.101562 1.234375 -1.554688 1.484375 -1.203125 C 1.742188 -0.847656 2.046875 -0.671875 2.390625 -0.671875 C 2.722656 -0.671875 3.007812 -0.84375 3.25 -1.1875 C 3.5 -1.53125 3.625 -2.046875 3.625 -2.734375 C 3.625 -3.535156 3.5 -4.117188 3.25 -4.484375 C 3.007812 -4.847656 2.703125 -5.03125 2.328125 -5.03125 C 1.992188 -5.03125 1.707031 -4.851562 1.46875 -4.5 C 1.226562 -4.15625 1.109375 -3.601562 1.109375 -2.84375 Z M 1.109375 -2.84375 "/>
</g>
<g id="glyph-0-11">
<path d="M 0.40625 -2.53125 L 1.21875 -2.609375 C 1.257812 -2.179688 1.351562 -1.84375 1.5 -1.59375 C 1.65625 -1.351562 1.875 -1.160156 2.15625 -1.015625 C 2.4375 -0.867188 2.753906 -0.796875 3.109375 -0.796875 C 3.617188 -0.796875 4.015625 -0.921875 4.296875 -1.171875 C 4.578125 -1.421875 4.71875 -1.742188 4.71875 -2.140625 C 4.71875 -2.378906 4.664062 -2.582031 4.5625 -2.75 C 4.46875 -2.925781 4.316406 -3.066406 4.109375 -3.171875 C 3.898438 -3.285156 3.453125 -3.441406 2.765625 -3.640625 C 2.160156 -3.828125 1.726562 -4.007812 1.46875 -4.1875 C 1.207031 -4.375 1.003906 -4.609375 0.859375 -4.890625 C 0.722656 -5.171875 0.65625 -5.488281 0.65625 -5.84375 C 0.65625 -6.476562 0.859375 -7 1.265625 -7.40625 C 1.679688 -7.8125 2.238281 -8.015625 2.9375 -8.015625 C 3.414062 -8.015625 3.832031 -7.914062 4.1875 -7.71875 C 4.550781 -7.53125 4.832031 -7.257812 5.03125 -6.90625 C 5.226562 -6.550781 5.335938 -6.132812 5.359375 -5.65625 L 4.53125 -5.578125 C 4.488281 -6.085938 4.332031 -6.46875 4.0625 -6.71875 C 3.800781 -6.96875 3.4375 -7.09375 2.96875 -7.09375 C 2.476562 -7.09375 2.109375 -6.984375 1.859375 -6.765625 C 1.609375 -6.546875 1.484375 -6.265625 1.484375 -5.921875 C 1.484375 -5.609375 1.570312 -5.363281 1.75 -5.1875 C 1.9375 -5.007812 2.359375 -4.832031 3.015625 -4.65625 C 3.648438 -4.476562 4.097656 -4.320312 4.359375 -4.1875 C 4.753906 -3.988281 5.050781 -3.722656 5.25 -3.390625 C 5.445312 -3.066406 5.546875 -2.679688 5.546875 -2.234375 C 5.546875 -1.773438 5.441406 -1.359375 5.234375 -0.984375 C 5.023438 -0.617188 4.738281 -0.335938 4.375 -0.140625 C 4.007812 0.0429688 3.570312 0.140625 3.0625 0.140625 C 2.257812 0.140625 1.617188 -0.0976562 1.140625 -0.578125 C 0.671875 -1.054688 0.425781 -1.707031 0.40625 -2.53125 Z M 0.40625 -2.53125 "/>
</g>
<g id="glyph-0-12">
<path d="M 3.640625 0 L 3.640625 -0.84375 C 3.460938 -0.519531 3.25 -0.273438 3 -0.109375 C 2.75 0.0429688 2.472656 0.125 2.171875 0.125 C 1.796875 0.125 1.476562 0.0234375 1.21875 -0.171875 C 0.957031 -0.367188 0.78125 -0.617188 0.6875 -0.921875 C 0.601562 -1.222656 0.5625 -1.640625 0.5625 -2.171875 L 0.5625 -5.703125 L 1.359375 -5.703125 L 1.359375 -2.546875 C 1.359375 -1.953125 1.382812 -1.554688 1.4375 -1.359375 C 1.5 -1.160156 1.609375 -1 1.765625 -0.875 C 1.929688 -0.757812 2.113281 -0.703125 2.3125 -0.703125 C 2.695312 -0.703125 3.007812 -0.859375 3.25 -1.171875 C 3.457031 -1.441406 3.5625 -1.929688 3.5625 -2.640625 L 3.5625 -5.703125 L 4.359375 -5.703125 L 4.359375 0 Z M 3.640625 0 "/>
</g>
<g id="glyph-0-13">
<path d="M 3.640625 -2.09375 L 4.421875 -1.96875 C 4.335938 -1.289062 4.113281 -0.769531 3.75 -0.40625 C 3.394531 -0.0507812 2.960938 0.125 2.453125 0.125 C 1.835938 0.125 1.332031 -0.125 0.9375 -0.625 C 0.539062 -1.125 0.34375 -1.867188 0.34375 -2.859375 C 0.34375 -3.847656 0.539062 -4.585938 0.9375 -5.078125 C 1.34375 -5.578125 1.859375 -5.828125 2.484375 -5.828125 C 2.972656 -5.828125 3.378906 -5.675781 3.703125 -5.375 C 4.035156 -5.082031 4.25 -4.632812 4.34375 -4.03125 L 3.578125 -3.890625 C 3.503906 -4.273438 3.375 -4.5625 3.1875 -4.75 C 3 -4.9375 2.773438 -5.03125 2.515625 -5.03125 C 2.117188 -5.03125 1.789062 -4.859375 1.53125 -4.515625 C 1.28125 -4.171875 1.15625 -3.625 1.15625 -2.875 C 1.15625 -2.09375 1.273438 -1.53125 1.515625 -1.1875 C 1.765625 -0.84375 2.082031 -0.671875 2.46875 -0.671875 C 2.769531 -0.671875 3.023438 -0.785156 3.234375 -1.015625 C 3.453125 -1.242188 3.585938 -1.601562 3.640625 -2.09375 Z M 3.640625 -2.09375 "/>
</g>
<g id="glyph-0-14">
<path d="M 0.28125 -2.859375 C 0.28125 -3.835938 0.488281 -4.578125 0.90625 -5.078125 C 1.320312 -5.578125 1.84375 -5.828125 2.46875 -5.828125 C 3.09375 -5.828125 3.613281 -5.578125 4.03125 -5.078125 C 4.457031 -4.578125 4.671875 -3.851562 4.671875 -2.90625 C 4.671875 -1.882812 4.460938 -1.125 4.046875 -0.625 C 3.640625 -0.125 3.113281 0.125 2.46875 0.125 C 1.84375 0.125 1.320312 -0.125 0.90625 -0.625 C 0.488281 -1.125 0.28125 -1.867188 0.28125 -2.859375 Z M 1.09375 -2.859375 C 1.09375 -2.117188 1.226562 -1.566406 1.5 -1.203125 C 1.769531 -0.847656 2.101562 -0.671875 2.5 -0.671875 C 2.875 -0.671875 3.191406 -0.847656 3.453125 -1.203125 C 3.722656 -1.566406 3.859375 -2.117188 3.859375 -2.859375 C 3.859375 -3.585938 3.722656 -4.128906 3.453125 -4.484375 C 3.179688 -4.847656 2.847656 -5.03125 2.453125 -5.03125 C 2.078125 -5.03125 1.753906 -4.847656 1.484375 -4.484375 C 1.222656 -4.128906 1.09375 -3.585938 1.09375 -2.859375 Z M 1.09375 -2.859375 "/>
</g>
<g id="glyph-0-15">
<path d="M 0.578125 -6.765625 L 0.578125 -7.875 L 1.375 -7.875 L 1.375 -6.765625 Z M 0.578125 0 L 0.578125 -5.703125 L 1.375 -5.703125 L 1.375 0 Z M 0.578125 0 "/>
</g>
<g id="glyph-0-16">
<path d="M 1.890625 0 L 0.109375 -5.703125 L 0.953125 -5.703125 L 1.953125 -2.28125 C 2.066406 -1.894531 2.164062 -1.515625 2.25 -1.140625 C 2.320312 -1.441406 2.421875 -1.800781 2.546875 -2.21875 L 3.59375 -5.703125 L 4.40625 -5.703125 L 2.625 0 Z M 1.890625 0 "/>
</g>
<g id="glyph-0-17">
<path d="M 0.609375 0 L 0.609375 -7.875 L 1.390625 -7.875 L 1.390625 -3.390625 L 3.265625 -5.703125 L 4.296875 -5.703125 L 2.515625 -3.59375 L 4.46875 0 L 3.5 0 L 1.953125 -2.921875 L 1.390625 -2.265625 L 1.390625 0 Z M 0.609375 0 "/>
</g>
<g id="glyph-0-18">
<path d="M 0.5625 0 L 0.5625 -7.875 L 1.34375 -7.875 L 1.34375 0 Z M 0.5625 0 "/>
</g>
<g id="glyph-0-19">
</g>
<g id="glyph-0-20">
<path d="M 0 0.140625 L 1.875 -8.015625 L 2.515625 -8.015625 L 0.640625 0.140625 Z M 0 0.140625 "/>
</g>
<g id="glyph-0-21">
<path d="M 1.4375 0 L 0.015625 -5.703125 L 0.828125 -5.703125 L 1.578125 -2.40625 L 1.84375 -1.1875 L 2.09375 -2.359375 L 2.84375 -5.703125 L 3.65625 -5.703125 L 4.34375 -2.390625 L 4.59375 -1.3125 L 4.859375 -2.40625 L 5.65625 -5.703125 L 6.421875 -5.703125 L 4.96875 0 L 4.140625 0 L 3.390625 -3.421875 L 3.21875 -4.390625 L 2.265625 0 Z M 1.4375 0 "/>
</g>
<g id="glyph-0-22">
<path d="M 0.671875 0 L 0.671875 -7.875 L 1.953125 -7.875 L 3.484375 -2.296875 L 3.796875 -1.140625 C 3.867188 -1.421875 3.984375 -1.835938 4.140625 -2.390625 L 5.6875 -7.875 L 6.828125 -7.875 L 6.828125 0 L 6.015625 0 L 6.015625 -6.59375 L 4.125 0 L 3.359375 0 L 1.5 -6.703125 L 1.5 0 Z M 0.671875 0 "/>
</g>
<g id="glyph-0-23">
<path d="M 0.8125 0 L 0.8125 -4.953125 L 0.109375 -4.953125 L 0.109375 -5.703125 L 0.8125 -5.703125 L 0.8125 -6.3125 C 0.8125 -6.757812 0.851562 -7.09375 0.9375 -7.3125 C 1.03125 -7.539062 1.171875 -7.710938 1.359375 -7.828125 C 1.554688 -7.953125 1.800781 -8.015625 2.09375 -8.015625 C 2.320312 -8.015625 2.570312 -7.976562 2.84375 -7.90625 L 2.71875 -7.0625 C 2.550781 -7.101562 2.394531 -7.125 2.25 -7.125 C 2.007812 -7.125 1.835938 -7.0625 1.734375 -6.9375 C 1.640625 -6.8125 1.59375 -6.578125 1.59375 -6.234375 L 1.59375 -5.703125 L 2.5 -5.703125 L 2.5 -4.953125 L 1.59375 -4.953125 L 1.59375 0 Z M 0.8125 0 "/>
</g>
<g id="glyph-0-24">
<path d="M 0.859375 0 L 0.859375 -7.875 L 1.71875 -7.875 L 1.71875 0 Z M 0.859375 0 "/>
</g>
<g id="glyph-1-0">
<path d="M 0.390625 0 L 0.390625 -11.25 L 3.8125 -11.25 L 3.8125 0 Z M 0.796875 -0.46875 L 3.40625 -0.46875 L 3.40625 -10.875 L 0.796875 -10.875 Z M 0.796875 -0.46875 "/>
</g>
<g id="glyph-1-1">
<path d="M 1.046875 0 L 1.046875 -12.890625 L 4.234375 -12.890625 L 6.15625 -4.09375 L 8.046875 -12.890625 L 11.25 -12.890625 L 11.25 0 L 9.265625 0 L 9.265625 -10.140625 L 7.171875 0 L 5.109375 0 L 3.03125 -10.140625 L 3.03125 0 Z M 1.046875 0 "/>
</g>
<g id="glyph-1-2">
<path d="M 5.5 -2.96875 L 7.515625 -2.5625 C 7.242188 -1.625 6.820312 -0.925781 6.25 -0.46875 C 5.6875 -0.0078125 5 0.21875 4.1875 0.21875 C 3.050781 0.21875 2.175781 -0.160156 1.5625 -0.921875 C 0.832031 -1.796875 0.46875 -3.023438 0.46875 -4.609375 C 0.46875 -6.171875 0.835938 -7.421875 1.578125 -8.359375 C 2.191406 -9.148438 2.992188 -9.546875 3.984375 -9.546875 C 5.078125 -9.546875 5.9375 -9.140625 6.5625 -8.328125 C 7.269531 -7.398438 7.625 -6.035156 7.625 -4.234375 L 7.625 -3.953125 L 2.546875 -3.953125 C 2.554688 -3.210938 2.722656 -2.640625 3.046875 -2.234375 C 3.367188 -1.835938 3.753906 -1.640625 4.203125 -1.640625 C 4.847656 -1.640625 5.28125 -2.082031 5.5 -2.96875 Z M 5.609375 -5.46875 C 5.597656 -6.195312 5.445312 -6.742188 5.15625 -7.109375 C 4.863281 -7.472656 4.515625 -7.65625 4.109375 -7.65625 C 3.679688 -7.65625 3.320312 -7.460938 3.03125 -7.078125 C 2.726562 -6.691406 2.578125 -6.15625 2.578125 -5.46875 Z M 5.609375 -5.46875 "/>
</g>
<g id="glyph-1-3">
<path d="M 3 0 L 0.96875 0 L 0.96875 -9.328125 L 2.859375 -9.328125 L 2.859375 -8 C 3.179688 -8.625 3.46875 -9.035156 3.71875 -9.234375 C 3.976562 -9.441406 4.273438 -9.546875 4.609375 -9.546875 C 5.066406 -9.546875 5.507812 -9.390625 5.9375 -9.078125 L 5.296875 -6.921875 C 4.960938 -7.191406 4.644531 -7.328125 4.34375 -7.328125 C 4.0625 -7.328125 3.8125 -7.222656 3.59375 -7.015625 C 3.382812 -6.804688 3.234375 -6.429688 3.140625 -5.890625 C 3.046875 -5.347656 3 -4.347656 3 -2.890625 Z M 3 0 "/>
</g>
<g id="glyph-1-4">
<path d="M 0.875 0.609375 L 3.1875 0.953125 C 3.226562 1.296875 3.335938 1.539062 3.515625 1.6875 C 3.691406 1.832031 3.972656 1.90625 4.359375 1.90625 C 4.804688 1.90625 5.164062 1.828125 5.4375 1.671875 C 5.632812 1.566406 5.785156 1.390625 5.890625 1.140625 C 5.992188 0.898438 6.046875 0.464844 6.046875 -0.15625 L 6.046875 -1.515625 C 5.742188 -1.003906 5.398438 -0.625 5.015625 -0.375 C 4.640625 -0.125 4.21875 0 3.75 0 C 2.90625 0 2.191406 -0.382812 1.609375 -1.15625 C 0.941406 -2.03125 0.609375 -3.21875 0.609375 -4.71875 C 0.609375 -6.3125 0.921875 -7.515625 1.546875 -8.328125 C 2.179688 -9.140625 2.945312 -9.546875 3.84375 -9.546875 C 4.3125 -9.546875 4.738281 -9.421875 5.125 -9.171875 C 5.519531 -8.921875 5.867188 -8.539062 6.171875 -8.03125 L 6.171875 -9.328125 L 8.078125 -9.328125 L 8.078125 -0.953125 C 8.078125 0.386719 7.953125 1.359375 7.703125 1.953125 C 7.460938 2.554688 7.082031 3.007812 6.5625 3.3125 C 6.050781 3.625 5.34375 3.78125 4.4375 3.78125 C 3.601562 3.78125 2.929688 3.671875 2.421875 3.453125 C 1.921875 3.234375 1.535156 2.898438 1.265625 2.453125 C 1.003906 2.015625 0.875 1.503906 0.875 0.921875 Z M 2.6875 -4.859375 C 2.6875 -3.859375 2.84375 -3.128906 3.15625 -2.671875 C 3.476562 -2.222656 3.863281 -2 4.3125 -2 C 4.800781 -2 5.21875 -2.226562 5.5625 -2.6875 C 5.90625 -3.15625 6.078125 -3.859375 6.078125 -4.796875 C 6.078125 -5.773438 5.910156 -6.492188 5.578125 -6.953125 C 5.253906 -7.421875 4.847656 -7.65625 4.359375 -7.65625 C 3.878906 -7.65625 3.476562 -7.425781 3.15625 -6.96875 C 2.84375 -6.507812 2.6875 -5.804688 2.6875 -4.859375 Z M 2.6875 -4.859375 "/>
</g>
<g id="glyph-1-5">
<path d="M 8.09375 0 L 6.203125 0 L 6.203125 -1.375 C 5.890625 -0.84375 5.519531 -0.441406 5.09375 -0.171875 C 4.675781 0.0859375 4.242188 0.21875 3.796875 0.21875 C 2.941406 0.21875 2.195312 -0.207031 1.5625 -1.0625 C 0.925781 -1.914062 0.609375 -3.132812 0.609375 -4.71875 C 0.609375 -6.3125 0.914062 -7.515625 1.53125 -8.328125 C 2.15625 -9.140625 2.921875 -9.546875 3.828125 -9.546875 C 4.253906 -9.546875 4.65625 -9.4375 5.03125 -9.21875 C 5.40625 -9 5.75 -8.675781 6.0625 -8.25 L 6.0625 -12.890625 L 8.09375 -12.890625 Z M 2.6875 -4.875 C 2.6875 -4.03125 2.753906 -3.398438 2.890625 -2.984375 C 3.035156 -2.566406 3.238281 -2.253906 3.5 -2.046875 C 3.769531 -1.835938 4.070312 -1.734375 4.40625 -1.734375 C 4.851562 -1.734375 5.238281 -1.972656 5.5625 -2.453125 C 5.894531 -2.941406 6.0625 -3.664062 6.0625 -4.625 C 6.0625 -5.695312 5.898438 -6.46875 5.578125 -6.9375 C 5.265625 -7.414062 4.863281 -7.65625 4.375 -7.65625 C 3.90625 -7.65625 3.503906 -7.421875 3.171875 -6.953125 C 2.847656 -6.492188 2.6875 -5.800781 2.6875 -4.875 Z M 2.6875 -4.875 "/>
</g>
<g id="glyph-1-6">
</g>
<g id="glyph-1-7">
<path d="M 1.0625 0 L 1.0625 -12.890625 L 3.09375 -12.890625 L 3.09375 0 Z M 1.0625 0 "/>
</g>
<g id="glyph-1-8">
<path d="M 2.578125 -6.484375 L 0.734375 -6.890625 C 0.960938 -7.835938 1.332031 -8.515625 1.84375 -8.921875 C 2.351562 -9.335938 3.085938 -9.546875 4.046875 -9.546875 C 4.898438 -9.546875 5.550781 -9.425781 6 -9.1875 C 6.457031 -8.945312 6.78125 -8.617188 6.96875 -8.203125 C 7.164062 -7.785156 7.265625 -7.035156 7.265625 -5.953125 L 7.25 -3.0625 C 7.25 -2.257812 7.28125 -1.660156 7.34375 -1.265625 C 7.40625 -0.867188 7.523438 -0.445312 7.703125 0 L 5.703125 0 L 5.4375 -1.015625 C 5.09375 -0.609375 4.722656 -0.300781 4.328125 -0.09375 C 3.929688 0.113281 3.507812 0.21875 3.0625 0.21875 C 2.320312 0.21875 1.710938 -0.03125 1.234375 -0.53125 C 0.765625 -1.039062 0.53125 -1.710938 0.53125 -2.546875 C 0.53125 -3.066406 0.625 -3.523438 0.8125 -3.921875 C 1.007812 -4.316406 1.28125 -4.628906 1.625 -4.859375 C 1.976562 -5.097656 2.546875 -5.304688 3.328125 -5.484375 C 4.265625 -5.703125 4.914062 -5.90625 5.28125 -6.09375 C 5.28125 -6.601562 5.242188 -6.9375 5.171875 -7.09375 C 5.097656 -7.257812 4.960938 -7.394531 4.765625 -7.5 C 4.566406 -7.601562 4.289062 -7.65625 3.9375 -7.65625 C 3.570312 -7.65625 3.285156 -7.570312 3.078125 -7.40625 C 2.867188 -7.238281 2.703125 -6.929688 2.578125 -6.484375 Z M 5.28125 -4.484375 C 5.019531 -4.378906 4.617188 -4.253906 4.078125 -4.109375 C 3.453125 -3.953125 3.039062 -3.769531 2.84375 -3.5625 C 2.65625 -3.363281 2.5625 -3.109375 2.5625 -2.796875 C 2.5625 -2.441406 2.664062 -2.140625 2.875 -1.890625 C 3.09375 -1.648438 3.363281 -1.53125 3.6875 -1.53125 C 3.96875 -1.53125 4.25 -1.628906 4.53125 -1.828125 C 4.8125 -2.023438 5.003906 -2.253906 5.109375 -2.515625 C 5.222656 -2.785156 5.28125 -3.273438 5.28125 -3.984375 Z M 5.28125 -4.484375 "/>
</g>
<g id="glyph-1-9">
<path d="M 4.5625 -9.328125 L 4.5625 -7.359375 L 3.1875 -7.359375 L 3.1875 -3.609375 C 3.1875 -2.785156 3.207031 -2.3125 3.25 -2.1875 C 3.320312 -1.957031 3.488281 -1.84375 3.75 -1.84375 C 3.9375 -1.84375 4.203125 -1.921875 4.546875 -2.078125 L 4.734375 -0.15625 C 4.265625 0.0898438 3.734375 0.21875 3.140625 0.21875 C 2.617188 0.21875 2.203125 0.0898438 1.890625 -0.15625 C 1.585938 -0.40625 1.382812 -0.757812 1.28125 -1.21875 C 1.195312 -1.5625 1.15625 -2.253906 1.15625 -3.296875 L 1.15625 -7.359375 L 0.21875 -7.359375 L 0.21875 -9.328125 L 1.15625 -9.328125 L 1.15625 -11.1875 L 3.1875 -12.625 L 3.1875 -9.328125 Z M 4.5625 -9.328125 "/>
</g>
<g id="glyph-1-10">
<path d="M 8.03125 0 L 6 0 L 6 -4.765625 C 6 -5.722656 5.957031 -6.359375 5.875 -6.671875 C 5.800781 -6.984375 5.660156 -7.222656 5.453125 -7.390625 C 5.242188 -7.566406 5.007812 -7.65625 4.75 -7.65625 C 4.40625 -7.65625 4.09375 -7.546875 3.8125 -7.328125 C 3.539062 -7.109375 3.347656 -6.804688 3.234375 -6.421875 C 3.128906 -6.035156 3.078125 -5.304688 3.078125 -4.234375 L 3.078125 0 L 1.046875 0 L 1.046875 -9.328125 L 2.921875 -9.328125 L 2.921875 -7.96875 C 3.253906 -8.488281 3.628906 -8.878906 4.046875 -9.140625 C 4.472656 -9.410156 4.941406 -9.546875 5.453125 -9.546875 C 6.046875 -9.546875 6.546875 -9.390625 6.953125 -9.078125 C 7.359375 -8.773438 7.640625 -8.378906 7.796875 -7.890625 C 7.953125 -7.410156 8.03125 -6.710938 8.03125 -5.796875 Z M 8.03125 0 "/>
</g>
<g id="glyph-1-11">
<path d="M 1 -9.328125 L 2.890625 -9.328125 L 2.890625 -7.96875 C 3.148438 -8.457031 3.488281 -8.84375 3.90625 -9.125 C 4.332031 -9.40625 4.789062 -9.546875 5.28125 -9.546875 C 6.144531 -9.546875 6.890625 -9.128906 7.515625 -8.296875 C 8.148438 -7.460938 8.46875 -6.28125 8.46875 -4.75 C 8.46875 -3.144531 8.148438 -1.914062 7.515625 -1.0625 C 6.890625 -0.207031 6.140625 0.21875 5.265625 0.21875 C 4.859375 0.21875 4.476562 0.117188 4.125 -0.078125 C 3.78125 -0.273438 3.414062 -0.632812 3.03125 -1.15625 L 3.03125 3.546875 L 1 3.546875 Z M 3 -4.828125 C 3 -3.773438 3.171875 -3 3.515625 -2.5 C 3.859375 -2 4.273438 -1.75 4.765625 -1.75 C 5.222656 -1.75 5.609375 -1.976562 5.921875 -2.4375 C 6.242188 -2.894531 6.40625 -3.644531 6.40625 -4.6875 C 6.40625 -5.675781 6.242188 -6.40625 5.921875 -6.875 C 5.597656 -7.351562 5.203125 -7.59375 4.734375 -7.59375 C 4.234375 -7.59375 3.816406 -7.363281 3.484375 -6.90625 C 3.160156 -6.445312 3 -5.753906 3 -4.828125 Z M 3 -4.828125 "/>
</g>
<g id="glyph-1-12">
<path d="M 0.59375 -4.796875 C 0.59375 -5.710938 0.769531 -6.546875 1.125 -7.296875 C 1.488281 -8.046875 1.960938 -8.609375 2.546875 -8.984375 C 3.140625 -9.359375 3.800781 -9.546875 4.53125 -9.546875 C 5.757812 -9.546875 6.722656 -9.0625 7.421875 -8.09375 C 8.128906 -7.132812 8.484375 -6.007812 8.484375 -4.71875 C 8.484375 -3.757812 8.300781 -2.890625 7.9375 -2.109375 C 7.570312 -1.335938 7.09375 -0.753906 6.5 -0.359375 C 5.90625 0.0234375 5.253906 0.21875 4.546875 0.21875 C 3.410156 0.21875 2.46875 -0.210938 1.71875 -1.078125 C 0.96875 -1.953125 0.59375 -3.191406 0.59375 -4.796875 Z M 2.65625 -4.671875 C 2.65625 -3.722656 2.835938 -3.003906 3.203125 -2.515625 C 3.578125 -2.035156 4.023438 -1.796875 4.546875 -1.796875 C 5.054688 -1.796875 5.492188 -2.039062 5.859375 -2.53125 C 6.222656 -3.019531 6.40625 -3.738281 6.40625 -4.6875 C 6.40625 -5.613281 6.21875 -6.316406 5.84375 -6.796875 C 5.476562 -7.285156 5.039062 -7.53125 4.53125 -7.53125 C 4.019531 -7.53125 3.578125 -7.285156 3.203125 -6.796875 C 2.835938 -6.316406 2.65625 -5.609375 2.65625 -4.671875 Z M 2.65625 -4.671875 "/>
</g>
<g id="glyph-1-13">
<path d="M 1.015625 -10.59375 L 1.015625 -12.890625 L 3.046875 -12.890625 L 3.046875 -10.59375 Z M 3.046875 -9.328125 L 3.046875 -0.296875 C 3.046875 0.980469 2.972656 1.859375 2.828125 2.328125 C 2.691406 2.796875 2.441406 3.15625 2.078125 3.40625 C 1.710938 3.65625 1.265625 3.78125 0.734375 3.78125 C 0.328125 3.78125 -0.140625 3.695312 -0.671875 3.53125 L -0.3125 1.421875 C -0.125 1.472656 0.0390625 1.5 0.1875 1.5 C 0.539062 1.5 0.785156 1.359375 0.921875 1.078125 C 0.984375 0.921875 1.015625 0.414062 1.015625 -0.4375 L 1.015625 -9.328125 Z M 3.046875 -9.328125 "/>
</g>
<g id="glyph-1-14">
<path d="M 7.734375 -6.578125 L 5.734375 -6.140625 C 5.585938 -7.117188 5.128906 -7.609375 4.359375 -7.609375 C 3.859375 -7.609375 3.457031 -7.394531 3.15625 -6.96875 C 2.851562 -6.550781 2.703125 -5.835938 2.703125 -4.828125 C 2.703125 -3.722656 2.851562 -2.941406 3.15625 -2.484375 C 3.457031 -2.023438 3.863281 -1.796875 4.375 -1.796875 C 4.757812 -1.796875 5.070312 -1.925781 5.3125 -2.1875 C 5.5625 -2.445312 5.738281 -2.910156 5.84375 -3.578125 L 7.84375 -3.171875 C 7.425781 -0.910156 6.242188 0.21875 4.296875 0.21875 C 3.046875 0.21875 2.117188 -0.253906 1.515625 -1.203125 C 0.910156 -2.160156 0.609375 -3.304688 0.609375 -4.640625 C 0.609375 -6.242188 0.945312 -7.460938 1.625 -8.296875 C 2.3125 -9.128906 3.210938 -9.546875 4.328125 -9.546875 C 5.222656 -9.546875 5.953125 -9.304688 6.515625 -8.828125 C 7.078125 -8.359375 7.484375 -7.609375 7.734375 -6.578125 Z M 7.734375 -6.578125 "/>
</g>
<g id="glyph-1-15">
<path d="M 1.0625 -10.59375 L 1.0625 -12.890625 L 3.09375 -12.890625 L 3.09375 -10.59375 Z M 1.0625 0 L 1.0625 -9.328125 L 3.09375 -9.328125 L 3.09375 0 Z M 1.0625 0 "/>
</g>
<g id="glyph-1-16">
<path d="M 0.359375 -2.65625 L 2.375 -3.046875 C 2.550781 -2.066406 3.097656 -1.578125 4.015625 -1.578125 C 4.503906 -1.578125 4.867188 -1.671875 5.109375 -1.859375 C 5.347656 -2.046875 5.46875 -2.285156 5.46875 -2.578125 C 5.46875 -2.785156 5.414062 -2.945312 5.3125 -3.0625 C 5.195312 -3.1875 4.976562 -3.289062 4.65625 -3.375 C 2.988281 -3.8125 1.929688 -4.226562 1.484375 -4.625 C 0.921875 -5.125 0.640625 -5.8125 0.640625 -6.6875 C 0.640625 -7.550781 0.910156 -8.242188 1.453125 -8.765625 C 2.003906 -9.285156 2.804688 -9.546875 3.859375 -9.546875 C 4.859375 -9.546875 5.617188 -9.347656 6.140625 -8.953125 C 6.660156 -8.566406 7.03125 -7.941406 7.25 -7.078125 L 5.328125 -6.640625 C 5.160156 -7.390625 4.679688 -7.765625 3.890625 -7.765625 C 3.390625 -7.765625 3.035156 -7.691406 2.828125 -7.546875 C 2.617188 -7.410156 2.515625 -7.226562 2.515625 -7 C 2.515625 -6.789062 2.609375 -6.617188 2.796875 -6.484375 C 2.992188 -6.347656 3.597656 -6.140625 4.609375 -5.859375 C 5.734375 -5.535156 6.5 -5.148438 6.90625 -4.703125 C 7.300781 -4.253906 7.5 -3.65625 7.5 -2.90625 C 7.5 -2 7.191406 -1.25 6.578125 -0.65625 C 5.960938 -0.0703125 5.109375 0.21875 4.015625 0.21875 C 3.023438 0.21875 2.21875 -0.0234375 1.59375 -0.515625 C 0.96875 -1.003906 0.554688 -1.71875 0.359375 -2.65625 Z M 0.359375 -2.65625 "/>
</g>
<g id="glyph-1-17">
<path d="M 0.171875 -9.328125 L 1.296875 -9.328125 L 1.296875 -10.03125 C 1.296875 -10.882812 1.375 -11.5 1.53125 -11.875 C 1.695312 -12.257812 1.957031 -12.5625 2.3125 -12.78125 C 2.675781 -13 3.125 -13.109375 3.65625 -13.109375 C 4.226562 -13.109375 4.789062 -13 5.34375 -12.78125 L 5.078125 -11.0625 C 4.753906 -11.15625 4.441406 -11.203125 4.140625 -11.203125 C 3.847656 -11.203125 3.640625 -11.117188 3.515625 -10.953125 C 3.390625 -10.796875 3.328125 -10.476562 3.328125 -10 L 3.328125 -9.328125 L 4.828125 -9.328125 L 4.828125 -7.390625 L 3.328125 -7.390625 L 3.328125 0 L 1.296875 0 L 1.296875 -7.390625 L 0.171875 -7.390625 Z M 0.171875 -9.328125 "/>
</g>
<g id="glyph-1-18">
<path d="M 1.4375 -6.859375 L 1.4375 -9.328125 L 3.46875 -9.328125 L 3.46875 -6.859375 Z M 1.4375 0 L 1.4375 -2.46875 L 3.46875 -2.46875 L 3.46875 0 Z M 1.4375 0 "/>
</g>
<g id="glyph-1-19">
<path d="M 5.8125 0 L 3.78125 0 L 3.78125 -9.3125 C 3.03125 -8.457031 2.160156 -7.832031 1.171875 -7.4375 L 1.171875 -9.671875 C 1.734375 -9.898438 2.316406 -10.304688 2.921875 -10.890625 C 3.523438 -11.484375 3.941406 -12.164062 4.171875 -12.9375 L 5.8125 -12.9375 Z M 5.8125 0 "/>
</g>
<g id="glyph-1-20">
<path d="M 1.015625 -2.46875 L 3.03125 -2.46875 L 3.03125 -0.703125 C 3.03125 0.292969 2.914062 1.039062 2.6875 1.53125 C 2.394531 2.132812 1.910156 2.582031 1.234375 2.875 L 0.84375 1.859375 C 1.238281 1.691406 1.523438 1.46875 1.703125 1.1875 C 1.878906 0.914062 1.972656 0.519531 1.984375 0 L 1.015625 0 Z M 1.015625 -2.46875 "/>
</g>
<g id="glyph-1-21">
<path d="M 0.65625 -3.3125 L 2.6875 -3.5625 C 2.738281 -3 2.910156 -2.554688 3.203125 -2.234375 C 3.492188 -1.921875 3.816406 -1.765625 4.171875 -1.765625 C 4.585938 -1.765625 4.941406 -1.96875 5.234375 -2.375 C 5.535156 -2.789062 5.6875 -3.425781 5.6875 -4.28125 C 5.6875 -5.09375 5.535156 -5.691406 5.234375 -6.078125 C 4.941406 -6.460938 4.566406 -6.65625 4.109375 -6.65625 C 3.535156 -6.65625 3.015625 -6.34375 2.546875 -5.71875 L 0.90625 -6 L 1.9375 -12.703125 L 7.296875 -12.703125 L 7.296875 -10.390625 L 3.484375 -10.390625 L 3.15625 -8.203125 C 3.613281 -8.484375 4.078125 -8.625 4.546875 -8.625 C 5.378906 -8.625 6.082031 -8.296875 6.65625 -7.640625 C 7.394531 -6.796875 7.765625 -5.691406 7.765625 -4.328125 C 7.765625 -3.191406 7.453125 -2.148438 6.828125 -1.203125 C 6.203125 -0.253906 5.3125 0.21875 4.15625 0.21875 C 3.21875 0.21875 2.429688 -0.0859375 1.796875 -0.703125 C 1.171875 -1.316406 0.789062 -2.1875 0.65625 -3.3125 Z M 0.65625 -3.3125 "/>
</g>
</g>
<clipPath id="clip-0">
<path clip-rule="nonzero" d="M 108 321 L 131 321 L 131 330.113281 L 108 330.113281 Z M 108 321 "/>
</clipPath>
</defs>
<rect x="-50.4" y="-36" width="604.8" height="432" fill="rgb(100%, 100%, 100%)" fill-opacity="1"/>
<rect x="-50.4" y="-36" width="604.8" height="432" fill="rgb(100%, 100%, 100%)" fill-opacity="1"/>
<path fill="none" stroke-width="1.066978" stroke-linecap="butt" stroke-linejoin="round" stroke="rgb(0%, 0%, 0%)" stroke-opacity="0.65098" stroke-miterlimit="1" d="M 428.804688 231.921875 L 427.476562 232.226562 L 424.273438 232.964844 L 421.066406 233.703125 L 417.863281 234.441406 L 414.65625 235.179688 L 411.453125 235.917969 L 408.246094 236.65625 L 405.042969 237.394531 L 401.835938 238.132812 L 398.632812 238.871094 L 395.425781 239.609375 L 392.222656 240.347656 L 389.015625 241.085938 L 385.8125 241.820312 L 382.605469 242.558594 L 379.402344 243.296875 L 376.195312 244.035156 L 372.992188 244.773438 L 369.785156 245.511719 L 366.582031 246.25 L 363.375 246.988281 L 360.171875 247.726562 L 356.964844 248.464844 L 353.761719 249.203125 L 350.554688 249.941406 L 347.351562 250.679688 L 344.144531 251.417969 L 340.941406 252.15625 L 337.734375 252.890625 L 334.53125 253.628906 L 331.324219 254.367188 L 328.121094 255.105469 L 324.914062 255.84375 L 321.710938 256.582031 L 318.503906 257.320312 L 315.300781 258.058594 L 312.09375 258.796875 L 308.890625 259.535156 L 305.683594 260.273438 L 302.480469 261.011719 L 299.273438 261.75 L 296.070312 262.488281 L 292.863281 263.226562 L 289.660156 263.960938 L 286.453125 264.699219 L 283.25 265.4375 L 280.042969 266.175781 L 276.839844 266.914062 L 273.632812 267.652344 L 270.429688 268.390625 L 267.222656 269.128906 L 264.019531 269.867188 L 260.8125 270.605469 L 257.609375 271.34375 L 254.402344 272.082031 L 251.199219 272.820312 L 247.992188 273.558594 L 244.789062 274.296875 L 241.582031 275.03125 L 238.378906 275.769531 L 235.171875 276.507812 L 231.96875 277.246094 L 228.761719 277.984375 L 225.558594 278.722656 L 222.351562 279.460938 L 219.148438 280.199219 L 215.941406 280.9375 L 212.738281 281.675781 L 209.53125 282.414062 L 206.328125 283.152344 L 203.121094 283.890625 L 199.917969 284.628906 L 196.710938 285.367188 L 193.507812 286.105469 L 190.300781 286.839844 L 187.097656 287.578125 L 183.890625 288.316406 L 180.6875 289.054688 L 177.480469 289.792969 L 174.277344 290.53125 L 171.070312 291.269531 L 167.867188 292.007812 L 164.660156 292.746094 L 161.457031 293.484375 L 158.25 294.222656 L 155.046875 294.960938 L 151.839844 295.699219 L 148.636719 296.4375 L 145.429688 297.175781 L 142.226562 297.910156 L 139.019531 298.648438 L 135.816406 299.386719 L 132.609375 300.125 L 129.40625 300.863281 L 128.078125 301.171875 "/>
<path fill="none" stroke-width="1.066978" stroke-linecap="butt" stroke-linejoin="round" stroke="rgb(0%, 0%, 0%)" stroke-opacity="0.65098" stroke-miterlimit="1" d="M 133.261719 296.339844 L 128.078125 301.171875 L 134.851562 303.246094 "/>
<path fill="none" stroke-width="1.066978" stroke-linecap="butt" stroke-linejoin="round" stroke="rgb(0%, 0%, 0%)" stroke-opacity="0.34902" stroke-miterlimit="1" d="M 428.589844 230.011719 L 260.503906 230.011719 "/>
<path fill="none" stroke-width="1.066978" stroke-linecap="butt" stroke-linejoin="round" stroke="rgb(0%, 0%, 0%)" stroke-opacity="0.34902" stroke-miterlimit="1" d="M 266.640625 226.46875 L 260.503906 230.011719 L 266.640625 233.558594 "/>
<path fill="none" stroke-width="1.066978" stroke-linecap="butt" stroke-linejoin="round" stroke="rgb(0%, 0%, 0%)" stroke-opacity="0.65098" stroke-miterlimit="1" d="M 244.558594 234.125 L 243.988281 234.441406 L 235.972656 238.871094 L 234.640625 239.609375 L 231.96875 241.085938 L 230.632812 241.820312 L 225.289062 244.773438 L 223.957031 245.511719 L 214.605469 250.679688 L 213.273438 251.417969 L 211.9375 252.15625 L 210.601562 252.890625 L 203.921875 256.582031 L 202.589844 257.320312 L 193.238281 262.488281 L 191.90625 263.226562 L 190.570312 263.960938 L 182.554688 268.390625 L 181.222656 269.128906 L 171.871094 274.296875 L 170.539062 275.03125 L 161.1875 280.199219 L 159.855469 280.9375 L 150.503906 286.105469 L 149.171875 286.839844 L 139.820312 292.007812 L 138.488281 292.746094 L 130.472656 297.175781 L 129.136719 297.910156 L 127.804688 298.648438 L 127.234375 298.964844 "/>
<path fill="none" stroke-width="1.066978" stroke-linecap="butt" stroke-linejoin="round" stroke="rgb(0%, 0%, 0%)" stroke-opacity="0.65098" stroke-miterlimit="1" d="M 130.890625 292.894531 L 127.234375 298.964844 L 134.320312 299.097656 "/>
<path fill="none" stroke-width="1.066978" stroke-linecap="butt" stroke-linejoin="round" stroke="rgb(0%, 0%, 0%)" stroke-opacity="0.65098" stroke-miterlimit="1" d="M 145.277344 77.722656 L 145.164062 78.71875 L 144.898438 81.078125 L 144.628906 83.441406 L 144.363281 85.804688 L 144.09375 88.164062 L 143.828125 90.527344 L 143.5625 92.886719 L 143.292969 95.25 L 143.027344 97.613281 L 142.761719 99.972656 L 142.492188 102.335938 L 142.226562 104.695312 L 141.957031 107.058594 L 141.691406 109.421875 L 141.425781 111.78125 L 141.15625 114.144531 L 140.890625 116.503906 L 140.625 118.867188 L 140.355469 121.230469 L 140.089844 123.589844 L 139.820312 125.953125 L 139.554688 128.3125 L 139.289062 130.675781 L 139.019531 133.035156 L 138.488281 137.761719 L 138.21875 140.121094 L 137.953125 142.484375 L 137.683594 144.84375 L 137.152344 149.570312 L 136.882812 151.929688 L 136.617188 154.292969 L 136.351562 156.652344 L 136.082031 159.015625 L 135.816406 161.378906 L 135.546875 163.738281 L 135.28125 166.101562 L 135.015625 168.460938 L 134.746094 170.824219 L 134.480469 173.1875 L 134.214844 175.546875 L 133.945312 177.910156 L 133.679688 180.269531 L 133.410156 182.632812 L 133.144531 184.992188 L 132.878906 187.355469 L 132.609375 189.71875 L 132.34375 192.078125 L 132.078125 194.441406 L 131.808594 196.800781 L 131.542969 199.164062 L 131.273438 201.527344 L 131.007812 203.886719 L 130.742188 206.25 L 130.472656 208.609375 L 129.941406 213.335938 L 129.671875 215.695312 L 129.40625 218.058594 L 129.136719 220.417969 L 128.605469 225.144531 L 128.335938 227.503906 L 128.070312 229.867188 L 127.804688 232.226562 L 127.535156 234.589844 L 127.269531 236.949219 L 127 239.3125 L 126.734375 241.675781 L 126.46875 244.035156 L 126.199219 246.398438 L 125.933594 248.757812 L 125.667969 251.121094 L 125.398438 253.484375 L 125.132812 255.84375 L 124.863281 258.207031 L 124.597656 260.566406 L 124.332031 262.929688 L 124.0625 265.292969 L 123.796875 267.652344 L 123.53125 270.015625 L 123.261719 272.375 L 122.996094 274.738281 L 122.726562 277.101562 L 122.460938 279.460938 L 122.195312 281.824219 L 121.925781 284.183594 L 121.660156 286.546875 L 121.394531 288.90625 L 121.125 291.269531 L 120.859375 293.632812 L 120.746094 294.628906 "/>
<path fill="none" stroke-width="1.066978" stroke-linecap="butt" stroke-linejoin="round" stroke="rgb(0%, 0%, 0%)" stroke-opacity="0.65098" stroke-miterlimit="1" d="M 117.914062 288.132812 L 120.746094 294.628906 L 124.957031 288.929688 "/>
<path fill="none" stroke-width="1.066978" stroke-linecap="butt" stroke-linejoin="round" stroke="rgb(0%, 0%, 0%)" stroke-opacity="0.65098" stroke-miterlimit="1" d="M 150.90625 76.375 L 151.574219 77.390625 L 152.640625 79.011719 L 153.710938 80.636719 L 154.777344 82.261719 L 155.847656 83.882812 L 156.914062 85.507812 L 157.984375 87.132812 L 159.050781 88.753906 L 160.121094 90.378906 L 161.1875 92.003906 L 162.257812 93.625 L 163.324219 95.25 L 164.394531 96.875 L 165.460938 98.496094 L 166.53125 100.121094 L 167.597656 101.746094 L 168.667969 103.367188 L 169.734375 104.992188 L 170.804688 106.617188 L 171.871094 108.238281 L 172.941406 109.863281 L 174.007812 111.488281 L 175.078125 113.109375 L 176.144531 114.734375 L 177.214844 116.359375 L 178.28125 117.980469 L 179.351562 119.605469 L 180.417969 121.230469 L 181.488281 122.851562 L 182.554688 124.476562 L 183.625 126.097656 L 184.691406 127.722656 L 185.761719 129.347656 L 186.828125 130.96875 L 187.898438 132.59375 L 188.964844 134.21875 L 190.035156 135.839844 L 191.101562 137.464844 L 192.171875 139.089844 L 193.238281 140.710938 L 194.308594 142.335938 L 195.375 143.960938 L 196.445312 145.582031 L 197.511719 147.207031 L 198.582031 148.832031 L 199.648438 150.453125 L 200.71875 152.078125 L 201.785156 153.703125 L 202.855469 155.324219 L 203.921875 156.949219 L 204.992188 158.574219 L 206.058594 160.195312 L 207.128906 161.820312 L 208.195312 163.445312 L 209.265625 165.066406 L 210.332031 166.691406 L 211.402344 168.316406 L 212.46875 169.9375 L 213.539062 171.5625 L 214.605469 173.1875 L 215.675781 174.808594 L 216.742188 176.433594 L 217.8125 178.054688 L 218.878906 179.679688 L 219.949219 181.304688 L 221.015625 182.925781 L 222.085938 184.550781 L 223.152344 186.175781 L 224.222656 187.796875 L 225.289062 189.421875 L 226.359375 191.046875 L 227.425781 192.667969 L 228.496094 194.292969 L 229.5625 195.917969 L 230.632812 197.539062 L 231.699219 199.164062 L 232.769531 200.789062 L 233.835938 202.410156 L 234.90625 204.035156 L 235.972656 205.660156 L 237.042969 207.28125 L 238.109375 208.90625 L 239.179688 210.53125 L 240.246094 212.152344 L 241.316406 213.777344 L 242.382812 215.402344 L 243.453125 217.023438 L 244.519531 218.648438 L 245.589844 220.273438 L 246.65625 221.894531 L 247.324219 222.910156 "/>
<path fill="none" stroke-width="1.066978" stroke-linecap="butt" stroke-linejoin="round" stroke="rgb(0%, 0%, 0%)" stroke-opacity="0.65098" stroke-miterlimit="1" d="M 240.992188 219.730469 L 247.324219 222.910156 L 246.914062 215.835938 "/>
<path fill="none" stroke-width="1.066978" stroke-linecap="butt" stroke-linejoin="round" stroke="rgb(0%, 0%, 0%)" stroke-opacity="0.94902" stroke-miterlimit="1" d="M 142.726562 77.019531 L 142.226562 78.128906 L 141.425781 79.898438 L 140.625 81.671875 L 139.820312 83.441406 L 139.019531 85.214844 L 137.417969 88.753906 L 136.617188 90.527344 L 135.816406 92.296875 L 135.015625 94.070312 L 134.214844 95.839844 L 133.410156 97.613281 L 131.808594 101.152344 L 131.007812 102.925781 L 130.207031 104.695312 L 129.40625 106.46875 L 128.605469 108.238281 L 127.804688 110.011719 L 127 111.78125 L 126.199219 113.554688 L 124.597656 117.09375 L 123.796875 118.867188 L 122.996094 120.636719 L 122.195312 122.410156 L 121.394531 124.179688 L 120.589844 125.953125 L 119.789062 127.722656 L 118.988281 129.496094 L 117.386719 133.035156 L 116.585938 134.808594 L 115.785156 136.578125 L 114.984375 138.351562 L 114.179688 140.121094 L 113.378906 141.894531 L 112.578125 143.664062 L 111.777344 145.4375 L 110.175781 148.976562 L 109.375 150.75 L 108.574219 152.519531 L 107.769531 154.292969 L 106.96875 156.0625 L 106.167969 157.835938 L 105.367188 159.605469 L 104.566406 161.378906 L 102.964844 164.917969 L 102.164062 166.691406 L 101.359375 168.460938 L 100.558594 170.234375 L 99.757812 172.003906 L 98.957031 173.777344 L 98.15625 175.546875 L 97.355469 177.320312 L 95.753906 180.859375 L 94.949219 182.632812 L 94.148438 184.402344 L 93.347656 186.175781 L 92.546875 187.945312 L 91.746094 189.71875 L 90.945312 191.488281 L 90.144531 193.261719 L 89.34375 195.03125 L 88.539062 196.800781 L 87.738281 198.574219 L 86.9375 200.34375 L 86.136719 202.117188 L 85.335938 203.886719 L 84.535156 205.660156 L 83.734375 207.429688 L 82.933594 209.203125 L 82.128906 210.972656 L 81.328125 212.742188 L 80.527344 214.515625 L 79.726562 216.285156 L 78.925781 218.058594 L 78.125 219.828125 L 77.324219 221.601562 L 76.523438 223.371094 L 75.71875 225.144531 L 74.117188 228.683594 L 73.316406 230.457031 L 72.515625 232.226562 L 71.714844 234 L 70.914062 235.769531 L 70.410156 236.878906 "/>
<path fill="none" stroke-width="1.066978" stroke-linecap="butt" stroke-linejoin="round" stroke="rgb(0%, 0%, 0%)" stroke-opacity="0.94902" stroke-miterlimit="1" d="M 69.710938 229.828125 L 70.410156 236.878906 L 76.167969 232.746094 "/>
<path fill="none" stroke-width="1.066978" stroke-linecap="butt" stroke-linejoin="round" stroke="rgb(0%, 0%, 0%)" stroke-opacity="0.65098" stroke-miterlimit="1" d="M 75.382812 243.957031 L 76.253906 243.886719 L 78.125 243.742188 L 79.992188 243.59375 L 83.734375 243.296875 L 85.601562 243.152344 L 89.34375 242.855469 L 91.210938 242.707031 L 93.082031 242.558594 L 94.949219 242.414062 L 98.691406 242.117188 L 100.558594 241.96875 L 102.429688 241.820312 L 104.300781 241.675781 L 106.167969 241.527344 L 108.039062 241.378906 L 109.90625 241.230469 L 111.777344 241.085938 L 113.648438 240.9375 L 115.515625 240.789062 L 119.257812 240.492188 L 121.125 240.347656 L 122.996094 240.199219 L 124.863281 240.050781 L 128.605469 239.753906 L 130.472656 239.609375 L 134.214844 239.3125 L 136.082031 239.164062 L 137.953125 239.015625 L 139.820312 238.871094 L 143.5625 238.574219 L 145.429688 238.425781 L 147.300781 238.28125 L 149.171875 238.132812 L 151.039062 237.984375 L 152.910156 237.835938 L 154.777344 237.6875 L 156.648438 237.542969 L 158.519531 237.394531 L 160.386719 237.246094 L 164.128906 236.949219 L 165.996094 236.804688 L 167.867188 236.65625 L 169.734375 236.507812 L 171.605469 236.359375 L 173.476562 236.214844 L 175.34375 236.066406 L 179.085938 235.769531 L 180.953125 235.621094 L 182.824219 235.476562 L 184.691406 235.328125 L 188.433594 235.03125 L 190.300781 234.882812 L 192.171875 234.738281 L 194.042969 234.589844 L 195.910156 234.441406 L 197.78125 234.292969 L 199.648438 234.148438 L 203.390625 233.851562 L 205.257812 233.703125 L 207.128906 233.554688 L 209 233.410156 L 210.867188 233.261719 L 212.738281 233.113281 L 214.605469 232.964844 L 216.476562 232.816406 L 218.347656 232.671875 L 220.214844 232.523438 L 223.957031 232.226562 L 225.824219 232.082031 L 227.695312 231.933594 L 229.5625 231.785156 L 233.304688 231.488281 L 235.171875 231.34375 L 238.914062 231.046875 L 240.78125 230.898438 L 242.652344 230.75 L 243.523438 230.683594 "/>
<path fill="none" stroke-width="1.066978" stroke-linecap="butt" stroke-linejoin="round" stroke="rgb(0%, 0%, 0%)" stroke-opacity="0.65098" stroke-miterlimit="1" d="M 237.683594 234.699219 L 243.523438 230.683594 L 237.125 227.632812 "/>
<path fill="none" stroke-width="1.066978" stroke-linecap="butt" stroke-linejoin="round" stroke="rgb(0%, 0%, 0%)" stroke-opacity="0.101961" stroke-dasharray="4.267913 4.267913" stroke-miterlimit="1" d="M 127.679688 299.90625 L 128.605469 299.535156 L 130.699219 298.695312 L 132.753906 297.867188 L 134.769531 297.054688 L 136.742188 296.257812 L 138.679688 295.472656 L 140.574219 294.707031 L 142.433594 293.949219 L 144.257812 293.207031 L 146.046875 292.480469 L 147.796875 291.765625 L 149.515625 291.058594 L 151.199219 290.367188 L 152.851562 289.683594 L 154.46875 289.011719 L 156.058594 288.351562 L 157.617188 287.703125 L 159.144531 287.058594 L 160.644531 286.425781 L 162.117188 285.800781 L 163.5625 285.1875 L 164.980469 284.578125 L 166.371094 283.976562 L 167.742188 283.378906 L 169.085938 282.792969 L 170.40625 282.207031 L 171.703125 281.632812 L 172.980469 281.058594 L 174.234375 280.492188 L 175.46875 279.925781 L 176.6875 279.367188 L 177.882812 278.808594 L 179.0625 278.257812 L 180.226562 277.703125 L 181.371094 277.15625 L 182.503906 276.605469 L 183.621094 276.058594 L 184.722656 275.511719 L 185.8125 274.964844 L 186.890625 274.421875 L 187.957031 273.875 L 189.011719 273.324219 L 190.058594 272.773438 L 191.09375 272.222656 L 192.121094 271.667969 L 193.144531 271.113281 L 194.15625 270.550781 L 195.164062 269.988281 L 196.167969 269.417969 L 197.167969 268.847656 L 198.160156 268.269531 L 200.144531 267.097656 L 201.132812 266.5 L 202.121094 265.898438 L 203.109375 265.289062 L 204.101562 264.671875 L 205.09375 264.046875 L 206.085938 263.414062 L 207.085938 262.769531 L 208.085938 262.117188 L 209.09375 261.457031 L 210.109375 260.785156 L 211.128906 260.101562 L 212.15625 259.40625 L 213.191406 258.703125 L 214.238281 257.984375 L 215.292969 257.253906 L 216.355469 256.511719 L 217.433594 255.757812 L 218.523438 254.988281 L 219.625 254.203125 L 220.738281 253.40625 L 221.867188 252.59375 L 223.015625 251.761719 L 224.175781 250.917969 L 225.355469 250.058594 L 226.550781 249.179688 L 227.765625 248.285156 L 229 247.371094 L 230.253906 246.441406 L 231.527344 245.492188 L 232.824219 244.523438 L 234.140625 243.535156 L 235.484375 242.527344 L 236.847656 241.5 L 238.238281 240.453125 L 239.65625 239.382812 L 241.097656 238.292969 L 242.566406 237.179688 L 244.066406 236.042969 L 245.230469 235.160156 "/>
<path fill="none" stroke-width="1.066978" stroke-linecap="butt" stroke-linejoin="round" stroke="rgb(0%, 0%, 0%)" stroke-opacity="0.4" stroke-dasharray="4.267913 4.267913" stroke-miterlimit="1" d="M 115.550781 295.707031 L 115.3125 295.292969 L 114.855469 294.511719 L 114.410156 293.742188 L 113.96875 292.992188 L 113.535156 292.253906 L 113.109375 291.527344 L 112.6875 290.816406 L 112.269531 290.121094 L 111.859375 289.4375 L 111.457031 288.765625 L 111.054688 288.105469 L 110.660156 287.460938 L 110.269531 286.824219 L 109.882812 286.199219 L 109.5 285.589844 L 109.117188 284.984375 L 108.742188 284.394531 L 108.367188 283.8125 L 107.996094 283.238281 L 107.625 282.675781 L 107.253906 282.121094 L 106.886719 281.574219 L 106.523438 281.039062 L 106.15625 280.507812 L 105.792969 279.984375 L 105.425781 279.46875 L 105.0625 278.960938 L 104.695312 278.460938 L 104.328125 277.964844 L 103.960938 277.472656 L 103.59375 276.988281 L 103.222656 276.507812 L 102.851562 276.035156 L 102.476562 275.5625 L 102.097656 275.097656 L 101.714844 274.632812 L 101.332031 274.175781 L 100.945312 273.71875 L 100.15625 272.8125 L 99.351562 271.914062 L 98.9375 271.46875 L 98.523438 271.019531 L 98.101562 270.574219 L 97.671875 270.128906 L 97.238281 269.683594 L 96.796875 269.238281 L 96.347656 268.789062 L 95.890625 268.34375 L 95.425781 267.894531 L 94.953125 267.441406 L 94.472656 266.988281 L 93.984375 266.53125 L 93.488281 266.070312 L 92.980469 265.609375 L 92.464844 265.140625 L 91.9375 264.671875 L 91.398438 264.195312 L 90.851562 263.71875 L 90.292969 263.234375 L 89.722656 262.742188 L 89.140625 262.246094 L 88.546875 261.746094 L 87.941406 261.238281 L 87.324219 260.722656 L 86.695312 260.199219 L 86.050781 259.671875 L 85.394531 259.132812 L 84.722656 258.585938 L 84.039062 258.035156 L 83.339844 257.46875 L 82.625 256.898438 L 81.894531 256.316406 L 81.152344 255.726562 L 80.390625 255.125 L 79.617188 254.511719 L 78.824219 253.886719 L 78.015625 253.253906 L 77.191406 252.605469 L 76.347656 251.949219 L 75.488281 251.277344 L 74.609375 250.59375 L 73.714844 249.898438 L 73.628906 249.832031 "/>
<path fill="none" stroke-width="1.066978" stroke-linecap="butt" stroke-linejoin="round" stroke="rgb(0%, 0%, 0%)" stroke-opacity="0.101961" stroke-dasharray="4.267913 4.267913" stroke-miterlimit="1" d="M 72.089844 237.886719 L 72.550781 237.285156 L 74.359375 234.929688 L 76.128906 232.625 L 77.863281 230.359375 L 79.5625 228.140625 L 81.226562 225.960938 L 82.855469 223.824219 L 84.449219 221.730469 L 86.007812 219.671875 L 87.535156 217.652344 L 89.027344 215.671875 L 90.492188 213.726562 L 91.921875 211.8125 L 93.316406 209.9375 L 94.683594 208.09375 L 96.023438 206.28125 L 97.328125 204.5 L 98.605469 202.746094 L 99.851562 201.023438 L 101.070312 199.328125 L 102.261719 197.660156 L 103.425781 196.015625 L 104.5625 194.398438 L 105.671875 192.804688 L 106.753906 191.230469 L 107.808594 189.679688 L 108.839844 188.148438 L 109.847656 186.636719 L 110.832031 185.140625 L 111.789062 183.667969 L 112.722656 182.207031 L 113.636719 180.761719 L 114.523438 179.332031 L 115.390625 177.914062 L 116.238281 176.507812 L 117.0625 175.113281 L 117.867188 173.726562 L 118.652344 172.351562 L 119.414062 170.984375 L 120.160156 169.621094 L 120.886719 168.265625 L 121.59375 166.914062 L 122.285156 165.566406 L 122.957031 164.222656 L 123.613281 162.878906 L 124.253906 161.535156 L 124.878906 160.191406 L 125.484375 158.847656 L 126.078125 157.5 L 126.65625 156.148438 L 127.222656 154.792969 L 127.773438 153.433594 L 128.3125 152.0625 L 128.839844 150.6875 L 129.351562 149.300781 L 129.855469 147.90625 L 130.34375 146.5 L 130.824219 145.082031 L 131.292969 143.652344 L 131.753906 142.207031 L 132.207031 140.746094 L 132.648438 139.269531 L 133.082031 137.777344 L 133.507812 136.265625 L 133.925781 134.734375 L 134.335938 133.179688 L 134.742188 131.609375 L 135.140625 130.011719 L 135.535156 128.390625 L 135.921875 126.75 L 136.304688 125.078125 L 136.6875 123.382812 L 137.0625 121.660156 L 137.433594 119.90625 L 137.804688 118.125 L 138.171875 116.3125 L 138.539062 114.46875 L 138.90625 112.589844 L 139.269531 110.679688 L 139.632812 108.730469 L 139.996094 106.75 L 140.363281 104.730469 L 140.730469 102.671875 L 141.097656 100.574219 L 141.464844 98.4375 L 141.835938 96.257812 L 142.210938 94.035156 L 142.589844 91.773438 L 142.972656 89.464844 L 143.359375 87.109375 L 143.753906 84.710938 L 144.148438 82.261719 L 144.550781 79.765625 L 144.886719 77.667969 "/>
<path fill-rule="nonzero" fill="rgb(0%, 0%, 0%)" fill-opacity="1" stroke-width="0.708661" stroke-linecap="round" stroke-linejoin="round" stroke="rgb(0%, 0%, 0%)" stroke-opacity="1" stroke-miterlimit="10" d="M 121.746094 303.078125 C 121.746094 305.683594 117.835938 305.683594 117.835938 303.078125 C 117.835938 300.472656 121.746094 300.472656 121.746094 303.078125 "/>
<path fill-rule="nonzero" fill="rgb(0%, 61.960784%, 45.098039%)" fill-opacity="1" stroke-width="0.708661" stroke-linecap="round" stroke-linejoin="round" stroke="rgb(0%, 61.960784%, 45.098039%)" stroke-opacity="1" stroke-miterlimit="10" d="M 253.953125 230.011719 C 253.953125 232.621094 250.046875 232.621094 250.046875 230.011719 C 250.046875 227.40625 253.953125 227.40625 253.953125 230.011719 "/>
<path fill-rule="nonzero" fill="rgb(0%, 61.960784%, 45.098039%)" fill-opacity="1" stroke-width="0.708661" stroke-linecap="round" stroke-linejoin="round" stroke="rgb(0%, 61.960784%, 45.098039%)" stroke-opacity="1" stroke-miterlimit="10" d="M 148.1875 69.273438 C 148.1875 71.878906 144.277344 71.878906 144.277344 69.273438 C 144.277344 66.664062 148.1875 66.664062 148.1875 69.273438 "/>
<path fill-rule="nonzero" fill="rgb(0%, 61.960784%, 45.098039%)" fill-opacity="1" stroke-width="0.708661" stroke-linecap="round" stroke-linejoin="round" stroke="rgb(0%, 61.960784%, 45.098039%)" stroke-opacity="1" stroke-miterlimit="10" d="M 68.863281 244.625 C 68.863281 247.234375 64.953125 247.234375 64.953125 244.625 C 64.953125 242.019531 68.863281 242.019531 68.863281 244.625 "/>
<path fill-rule="nonzero" fill="rgb(80%, 47.45098%, 65.490196%)" fill-opacity="1" stroke-width="0.708661" stroke-linecap="round" stroke-linejoin="round" stroke="rgb(80%, 47.45098%, 65.490196%)" stroke-opacity="1" stroke-miterlimit="10" d="M 439.046875 230.011719 C 439.046875 232.621094 435.136719 232.621094 435.136719 230.011719 C 435.136719 227.40625 439.046875 227.40625 439.046875 230.011719 "/>
<g fill="rgb(0%, 0%, 0%)" fill-opacity="0.501961">
<use xlink:href="#glyph-0-1" x="93.789062" y="313.060547"/>
<use xlink:href="#glyph-0-2" x="99.789062" y="313.060547"/>
<use xlink:href="#glyph-0-2" x="104.789062" y="313.060547"/>
<use xlink:href="#glyph-0-3" x="109.789062" y="313.060547"/>
<use xlink:href="#glyph-0-2" x="114.789062" y="313.060547"/>
<use xlink:href="#glyph-0-2" x="119.789062" y="313.060547"/>
<use xlink:href="#glyph-0-4" x="124.789062" y="313.060547"/>
<use xlink:href="#glyph-0-3" x="132.789062" y="313.060547"/>
<use xlink:href="#glyph-0-5" x="137.789062" y="313.060547"/>
<use xlink:href="#glyph-0-6" x="142.789062" y="313.060547"/>
</g>
<g clip-path="url(#clip-0)">
<g fill="rgb(0%, 0%, 0%)" fill-opacity="0.501961">
<use xlink:href="#glyph-0-7" x="108.289062" y="328.900391"/>
<use xlink:href="#glyph-0-8" x="113.289062" y="328.900391"/>
<use xlink:href="#glyph-0-9" x="116.289062" y="328.900391"/>
<use xlink:href="#glyph-0-10" x="121.289062" y="328.900391"/>
<use xlink:href="#glyph-0-3" x="126.289062" y="328.900391"/>
</g>
</g>
<g fill="rgb(0%, 0%, 0%)" fill-opacity="0.501961">
<use xlink:href="#glyph-0-11" x="236" y="232.076172"/>
<use xlink:href="#glyph-0-6" x="242" y="232.076172"/>
<use xlink:href="#glyph-0-12" x="245" y="232.076172"/>
<use xlink:href="#glyph-0-10" x="250" y="232.076172"/>
<use xlink:href="#glyph-0-3" x="255" y="232.076172"/>
<use xlink:href="#glyph-0-5" x="260" y="232.076172"/>
<use xlink:href="#glyph-0-6" x="265" y="232.076172"/>
</g>
<g fill="rgb(0%, 0%, 0%)" fill-opacity="0.501961">
<use xlink:href="#glyph-0-4" x="223" y="247.916016"/>
<use xlink:href="#glyph-0-3" x="231" y="247.916016"/>
<use xlink:href="#glyph-0-6" x="236" y="247.916016"/>
<use xlink:href="#glyph-0-9" x="239" y="247.916016"/>
<use xlink:href="#glyph-0-13" x="244" y="247.916016"/>
<use xlink:href="#glyph-0-14" x="249" y="247.916016"/>
<use xlink:href="#glyph-0-7" x="254" y="247.916016"/>
<use xlink:href="#glyph-0-5" x="259" y="247.916016"/>
<use xlink:href="#glyph-0-15" x="264" y="247.916016"/>
<use xlink:href="#glyph-0-6" x="266" y="247.916016"/>
<use xlink:href="#glyph-0-15" x="269" y="247.916016"/>
<use xlink:href="#glyph-0-16" x="271" y="247.916016"/>
<use xlink:href="#glyph-0-3" x="276" y="247.916016"/>
</g>
<g fill="rgb(0%, 0%, 0%)" fill-opacity="0.501961">
<use xlink:href="#glyph-0-2" x="244" y="263.755859"/>
<use xlink:href="#glyph-0-17" x="249" y="263.755859"/>
<use xlink:href="#glyph-0-15" x="254" y="263.755859"/>
<use xlink:href="#glyph-0-18" x="256" y="263.755859"/>
<use xlink:href="#glyph-0-18" x="258" y="263.755859"/>
</g>
<g fill="rgb(0%, 0%, 0%)" fill-opacity="0.501961">
<use xlink:href="#glyph-0-11" x="130.230469" y="71.333984"/>
<use xlink:href="#glyph-0-6" x="136.230469" y="71.333984"/>
<use xlink:href="#glyph-0-12" x="139.230469" y="71.333984"/>
<use xlink:href="#glyph-0-10" x="144.230469" y="71.333984"/>
<use xlink:href="#glyph-0-3" x="149.230469" y="71.333984"/>
<use xlink:href="#glyph-0-5" x="154.230469" y="71.333984"/>
<use xlink:href="#glyph-0-6" x="159.230469" y="71.333984"/>
</g>
<g fill="rgb(0%, 0%, 0%)" fill-opacity="0.501961">
<use xlink:href="#glyph-0-3" x="126.730469" y="87.173828"/>
<use xlink:href="#glyph-0-4" x="131.730469" y="87.173828"/>
<use xlink:href="#glyph-0-14" x="139.730469" y="87.173828"/>
<use xlink:href="#glyph-0-6" x="144.730469" y="87.173828"/>
<use xlink:href="#glyph-0-15" x="147.730469" y="87.173828"/>
<use xlink:href="#glyph-0-14" x="149.730469" y="87.173828"/>
<use xlink:href="#glyph-0-5" x="154.730469" y="87.173828"/>
<use xlink:href="#glyph-0-19" x="159.730469" y="87.173828"/>
<use xlink:href="#glyph-0-20" x="162.730469" y="87.173828"/>
</g>
<g fill="rgb(0%, 0%, 0%)" fill-opacity="0.501961">
<use xlink:href="#glyph-0-4" x="124.730469" y="103.013672"/>
<use xlink:href="#glyph-0-14" x="132.730469" y="103.013672"/>
<use xlink:href="#glyph-0-6" x="137.730469" y="103.013672"/>
<use xlink:href="#glyph-0-15" x="140.730469" y="103.013672"/>
<use xlink:href="#glyph-0-16" x="142.730469" y="103.013672"/>
<use xlink:href="#glyph-0-9" x="147.730469" y="103.013672"/>
<use xlink:href="#glyph-0-6" x="152.730469" y="103.013672"/>
<use xlink:href="#glyph-0-15" x="155.730469" y="103.013672"/>
<use xlink:href="#glyph-0-14" x="157.730469" y="103.013672"/>
<use xlink:href="#glyph-0-5" x="162.730469" y="103.013672"/>
</g>
<g fill="rgb(0%, 0%, 0%)" fill-opacity="0.501961">
<use xlink:href="#glyph-0-11" x="50.90625" y="254.611328"/>
<use xlink:href="#glyph-0-6" x="56.90625" y="254.611328"/>
<use xlink:href="#glyph-0-12" x="59.90625" y="254.611328"/>
<use xlink:href="#glyph-0-10" x="64.90625" y="254.611328"/>
<use xlink:href="#glyph-0-3" x="69.90625" y="254.611328"/>
<use xlink:href="#glyph-0-5" x="74.90625" y="254.611328"/>
<use xlink:href="#glyph-0-6" x="79.90625" y="254.611328"/>
</g>
<g fill="rgb(0%, 0%, 0%)" fill-opacity="0.501961">
<use xlink:href="#glyph-0-17" x="44.90625" y="270.451172"/>
<use xlink:href="#glyph-0-5" x="49.90625" y="270.451172"/>
<use xlink:href="#glyph-0-14" x="54.90625" y="270.451172"/>
<use xlink:href="#glyph-0-21" x="59.90625" y="270.451172"/>
<use xlink:href="#glyph-0-18" x="66.90625" y="270.451172"/>
<use xlink:href="#glyph-0-3" x="68.90625" y="270.451172"/>
<use xlink:href="#glyph-0-10" x="73.90625" y="270.451172"/>
<use xlink:href="#glyph-0-7" x="78.90625" y="270.451172"/>
<use xlink:href="#glyph-0-3" x="83.90625" y="270.451172"/>
</g>
<g fill="rgb(0%, 0%, 0%)" fill-opacity="0.501961">
<use xlink:href="#glyph-0-22" x="411.09375" y="247.916016"/>
<use xlink:href="#glyph-0-15" x="419.09375" y="247.916016"/>
<use xlink:href="#glyph-0-2" x="421.09375" y="247.916016"/>
<use xlink:href="#glyph-0-12" x="426.09375" y="247.916016"/>
<use xlink:href="#glyph-0-2" x="431.09375" y="247.916016"/>
<use xlink:href="#glyph-0-3" x="436.09375" y="247.916016"/>
<use xlink:href="#glyph-0-19" x="441.09375" y="247.916016"/>
<use xlink:href="#glyph-0-14" x="444.09375" y="247.916016"/>
<use xlink:href="#glyph-0-23" x="449.09375" y="247.916016"/>
<use xlink:href="#glyph-0-19" x="452.09375" y="247.916016"/>
<use xlink:href="#glyph-0-1" x="454.09375" y="247.916016"/>
<use xlink:href="#glyph-0-24" x="460.09375" y="247.916016"/>
</g>
<g fill="rgb(0%, 0%, 0%)" fill-opacity="1">
<use xlink:href="#glyph-1-1" x="29.886719" y="42.726562"/>
<use xlink:href="#glyph-1-2" x="41.886719" y="42.726562"/>
<use xlink:href="#glyph-1-3" x="49.886719" y="42.726562"/>
<use xlink:href="#glyph-1-4" x="55.886719" y="42.726562"/>
<use xlink:href="#glyph-1-2" x="64.886719" y="42.726562"/>
<use xlink:href="#glyph-1-5" x="72.886719" y="42.726562"/>
<use xlink:href="#glyph-1-6" x="81.886719" y="42.726562"/>
<use xlink:href="#glyph-1-7" x="85.886719" y="42.726562"/>
<use xlink:href="#glyph-1-8" x="89.886719" y="42.726562"/>
<use xlink:href="#glyph-1-9" x="97.886719" y="42.726562"/>
<use xlink:href="#glyph-1-2" x="102.886719" y="42.726562"/>
<use xlink:href="#glyph-1-10" x="110.886719" y="42.726562"/>
<use xlink:href="#glyph-1-9" x="119.886719" y="42.726562"/>
<use xlink:href="#glyph-1-6" x="124.886719" y="42.726562"/>
<use xlink:href="#glyph-1-11" x="128.886719" y="42.726562"/>
<use xlink:href="#glyph-1-3" x="137.886719" y="42.726562"/>
<use xlink:href="#glyph-1-12" x="143.886719" y="42.726562"/>
<use xlink:href="#glyph-1-13" x="152.886719" y="42.726562"/>
<use xlink:href="#glyph-1-2" x="156.886719" y="42.726562"/>
<use xlink:href="#glyph-1-14" x="164.886719" y="42.726562"/>
<use xlink:href="#glyph-1-9" x="172.886719" y="42.726562"/>
<use xlink:href="#glyph-1-15" x="177.886719" y="42.726562"/>
<use xlink:href="#glyph-1-12" x="181.886719" y="42.726562"/>
<use xlink:href="#glyph-1-10" x="190.886719" y="42.726562"/>
<use xlink:href="#glyph-1-16" x="199.886719" y="42.726562"/>
<use xlink:href="#glyph-1-6" x="207.886719" y="42.726562"/>
<use xlink:href="#glyph-1-12" x="211.886719" y="42.726562"/>
<use xlink:href="#glyph-1-17" x="220.886719" y="42.726562"/>
<use xlink:href="#glyph-1-18" x="225.886719" y="42.726562"/>
<use xlink:href="#glyph-1-6" x="230.886719" y="42.726562"/>
<use xlink:href="#glyph-1-1" x="234.886719" y="42.726562"/>
<use xlink:href="#glyph-1-19" x="246.886719" y="42.726562"/>
<use xlink:href="#glyph-1-20" x="254.886719" y="42.726562"/>
<use xlink:href="#glyph-1-6" x="258.886719" y="42.726562"/>
<use xlink:href="#glyph-1-1" x="262.886719" y="42.726562"/>
<use xlink:href="#glyph-1-21" x="274.886719" y="42.726562"/>
</g>
</svg>
